<!-- <svg xmlns="http://www.w3.org/2000/svg" fill="none" viewBox="0 0 36 36">
  <path fill="#000" d="M22.25 4h-8.5a1 1 0 0 0-.96.73l-5.54 19.4a.5.5 0 0 0 .62.62l5.05-1.44a2 2 0 0 0 1.38-1.4l3.22-11.66a.5.5 0 0 1 .96 0l3.22 11.67a2 2 0 0 0 1.38 1.39l5.05 1.44a.5.5 0 0 0 .62-.62l-5.54-19.4a1 1 0 0 0-.96-.73Z"/>
  <path fill="url(#gradient)" d="M18 28a7.63 7.63 0 0 1-5-2c-1.4 2.1-.35 4.35.6 5.55.14.17.41.07.47-.15.44-1.8 2.93-1.22 2.93.6 0 2.28.87 3.4 1.72 3.81.34.16.59-.2.49-.56-.31-1.05-.29-2.46 1.29-3.25 3-1.5 3.17-4.83 2.5-6-.67.67-2.6 2-5 2Z"/>
  <defs>
    <linearGradient id="gradient" x1="16" x2="16" y1="32" y2="24" gradientUnits="userSpaceOnUse">
      <stop stop-color="#000"/>
      <stop offset="1" stop-color="#000" stop-opacity="0"/>
    </linearGradient>
  </defs>
	<style>
    @media (prefers-color-scheme:dark){:root{filter:invert(100%)}}
  </style>
</svg>
 -->

<svg xmlns="http://www.w3.org/2000/svg" width="1em" height="1em" preserveAspectRatio="xMidYMid meet" viewBox="0 0 256 256"><rect x="0" y="0" width="256" height="256" fill="none" stroke="none" /><path fill="#9747ff" d="M168 96H88a40 40 0 0 0-40 40v8a40 40 0 0 0 40 40h80a40 40 0 0 0 40-40v-8a40 40 0 0 0-40-40Zm24 48a24.1 24.1 0 0 1-24 24H88a24.1 24.1 0 0 1-24-24v-8a24.1 24.1 0 0 1 24-24h80a24.1 24.1 0 0 1 24 24Zm-16-4a12 12 0 1 1-12-12a12 12 0 0 1 12 12Zm-72 0a12 12 0 1 1-12-12a12 12 0 0 1 12 12ZM208 32a32.1 32.1 0 0 0-31 24H79a32 32 0 0 0-63 8v80a72.1 72.1 0 0 0 72 72h80a72.1 72.1 0 0 0 72-72V64a32.1 32.1 0 0 0-32-32Zm16 112a56 56 0 0 1-56 56H88a56 56 0 0 1-56-56V64a16 16 0 0 1 32 0a8 8 0 0 0 8 8h112a8 8 0 0 0 8-8a16 16 0 0 1 32 0Z"/></svg>