<svg width="18" height="27" viewBox="0 0 18 27" fill="none" xmlns="http://www.w3.org/2000/svg">
<path d="M4.5 27C6.984 27 9 24.984 9 22.5V18H4.5C2.016 18 0 20.016 0 22.5C0 24.984 2.016 27 4.5 27Z" fill="#0ACF83"/>
<path d="M0 13.5C0 11.016 2.016 9 4.5 9H9V18H4.5C2.016 18 0 15.984 0 13.5Z" fill="#A259FF"/>
<path d="M0 4.5C0 2.016 2.016 0 4.5 0H9V8.99999H4.5C2.016 8.99999 0 6.984 0 4.5Z" fill="#F24E1E"/>
<path d="M9 0H13.5C15.984 0 18 2.016 18 4.5C18 6.984 15.984 8.99999 13.5 8.99999H9V0Z" fill="#FF7262"/>
<path d="M18 13.5C18 15.984 15.984 18 13.5 18C11.016 18 9 15.984 9 13.5C9 11.016 11.016 9 13.5 9C15.984 9 18 11.016 18 13.5Z" fill="#1ABCFE"/>
</svg>
