<svg width="26" height="16" viewBox="0 0 26 16" fill="none" xmlns="http://www.w3.org/2000/svg">
<path d="M6.1349 4.07135H11.0387V4.45924H6.58442V7.37863H10.7731V7.76653H6.58442V10.9717H11.0898V11.3596H6.1349V4.07135ZM11.478 4.07135H11.9991L14.308 7.27656L16.6679 4.07135L19.8779 0L14.6042 7.61341L17.3218 11.3596H16.7803L14.308 7.95026L11.8254 11.3596H11.2941L14.0321 7.61341L11.478 4.07135ZM17.5159 4.45924V4.07135H23.1042V4.45924H20.5297V11.3596H20.0802V4.45924H17.5159Z" fill="white"/>
<path d="M0 4.07135H0.561898L8.31014 15.6102L5.10816 11.3596L0.469951 4.62256L0.449518 11.3596H0V4.07135Z" fill="white"/>
<path d="M23.0589 10.8547C23.1519 10.8547 23.2197 10.7838 23.2197 10.6923C23.2197 10.6008 23.1519 10.53 23.0589 10.53C22.9671 10.53 22.8982 10.6008 22.8982 10.6923C22.8982 10.7838 22.9671 10.8547 23.0589 10.8547ZM23.5006 10.4276C23.5006 10.6978 23.6964 10.8743 23.9817 10.8743C24.2857 10.8743 24.4693 10.6923 24.4693 10.3764V9.26399H24.2244V10.3753C24.2244 10.5507 24.1359 10.6444 23.9795 10.6444C23.8396 10.6444 23.7445 10.5572 23.7412 10.4276H23.5006ZM24.7897 10.4134C24.8072 10.6945 25.0422 10.8743 25.3921 10.8743C25.766 10.8743 26 10.6858 26 10.3851C26 10.1487 25.8666 10.0179 25.543 9.94275L25.3692 9.90026C25.1636 9.85232 25.0805 9.78804 25.0805 9.67582C25.0805 9.53419 25.2095 9.44158 25.403 9.44158C25.5867 9.44158 25.7136 9.53201 25.7365 9.67691H25.9749C25.9606 9.41216 25.7267 9.22586 25.4063 9.22586C25.0619 9.22586 24.8323 9.41216 24.8323 9.69217C24.8323 9.92314 24.9624 10.0604 25.2478 10.1269L25.4512 10.1759C25.66 10.2249 25.7518 10.2968 25.7518 10.4167C25.7518 10.5561 25.6075 10.6575 25.4107 10.6575C25.1997 10.6575 25.0532 10.5627 25.0324 10.4134H24.7897Z" fill="white"/>
</svg>
