<svg width="23" height="25" viewBox="0 0 23 25" fill="none" xmlns="http://www.w3.org/2000/svg">
<path d="M10.3196 0.266715C10.9395 -0.0881031 11.7469 -0.0897058 12.3663 0.266715C15.4822 2.02736 18.599 3.78524 21.7144 5.54696C22.3004 5.87702 22.6923 6.52914 22.6863 7.20432V17.797C22.6907 18.5002 22.26 19.1679 21.6418 19.4905C18.5362 21.2414 15.4321 22.9945 12.327 24.7454C11.6943 25.1072 10.8707 25.0793 10.2577 24.6879C9.32667 24.1481 8.39399 23.6111 7.46283 23.0718C7.27255 22.9584 7.05806 22.8681 6.9237 22.6836C7.04248 22.5235 7.25483 22.5036 7.42739 22.4337C7.81604 22.3101 8.173 22.1117 8.53004 21.9192C8.62033 21.8575 8.73056 21.8811 8.8171 21.9364C9.61328 22.3929 10.4024 22.8627 11.2013 23.3148C11.3717 23.4132 11.5443 23.2826 11.6899 23.2014C14.7375 21.4789 17.7889 19.763 20.8359 18.04C20.9488 17.9857 21.0113 17.8659 21.0021 17.7422C21.0042 14.2479 21.0026 10.7529 21.0032 7.25863C21.0161 7.11831 20.9349 6.98929 20.808 6.93186C17.7131 5.18893 14.6198 3.44334 11.5255 1.69997C11.4719 1.66311 11.4084 1.64333 11.3433 1.64324C11.2782 1.64314 11.2147 1.66273 11.1609 1.69943C8.0666 3.44334 4.97385 5.19054 1.8795 6.93337C1.75306 6.99089 1.66821 7.11777 1.68326 7.25863C1.68379 10.7529 1.68326 14.2479 1.68326 17.7427C1.67789 17.8031 1.69115 17.8636 1.72123 17.9162C1.75132 17.9688 1.7968 18.0109 1.85154 18.0368C2.67728 18.5051 3.50409 18.97 4.33037 19.4367C4.79586 19.6872 5.3674 19.8361 5.88026 19.6441C6.33284 19.4818 6.65009 19.02 6.64145 18.5394C6.64572 15.0655 6.63931 11.5911 6.64465 8.11767C6.63335 7.96346 6.77964 7.83605 6.92958 7.85056C7.32633 7.84789 7.72362 7.84522 8.12038 7.85163C8.28599 7.84789 8.39996 8.01394 8.37948 8.16932C8.37788 11.6652 8.38375 15.1612 8.37681 18.6571C8.37788 19.5888 7.9951 20.6026 7.1333 21.0585C6.0716 21.6085 4.75936 21.4919 3.71048 20.9645C2.80247 20.5113 1.93595 19.9764 1.04405 19.4909C0.424256 19.1701 -0.00428624 18.4997 7.66354e-05 17.7971V7.20432C-0.00642317 6.51516 0.401106 5.8512 1.00532 5.52594C4.11044 3.77358 7.21503 2.01988 10.3196 0.266715Z" fill="#8CC84B"/>
<path d="M13.0285 7.60435C14.3828 7.51718 15.8326 7.55271 17.0513 8.21987C17.9948 8.73113 18.5179 9.80413 18.5346 10.8524C18.5082 10.9938 18.3604 11.0718 18.2254 11.0621C17.8325 11.0615 17.4395 11.0674 17.0466 11.0594C16.8799 11.0658 16.783 10.9121 16.7621 10.7648C16.6492 10.2632 16.3757 9.76647 15.9036 9.52455C15.1789 9.16172 14.3386 9.17998 13.5484 9.18754C12.9715 9.21817 12.3512 9.26812 11.8625 9.60736C11.4873 9.86432 11.3733 10.3831 11.5072 10.8008C11.6335 11.1008 11.9797 11.1976 12.2631 11.2868C13.8951 11.7137 15.6246 11.6712 17.2255 12.2329C17.8883 12.4619 18.5367 12.9071 18.7636 13.6011C19.0603 14.5312 18.9303 15.6429 18.2685 16.3896C17.7319 17.004 16.9503 17.3385 16.1708 17.5201C15.1337 17.7513 14.0575 17.7572 13.0044 17.6546C12.0141 17.5417 10.9836 17.2815 10.2191 16.6068C9.56538 16.0391 9.24609 15.1547 9.27778 14.3011C9.28535 14.157 9.42888 14.0564 9.56698 14.0683C9.96267 14.0651 10.3584 14.064 10.754 14.0688C10.9121 14.0575 11.0293 14.1941 11.0374 14.343C11.1104 14.8209 11.29 15.3225 11.7067 15.6058C12.5109 16.1246 13.5199 16.0891 14.4408 16.1036C15.2036 16.0698 16.06 16.0595 16.6826 15.5553C17.011 15.2677 17.1084 14.7865 17.0196 14.3726C16.9234 14.0231 16.5578 13.8603 16.2439 13.7538C14.6327 13.2441 12.8839 13.4291 11.2884 12.8527C10.6406 12.6238 10.0142 12.191 9.76536 11.5255C9.41811 10.5837 9.57722 9.41869 10.3083 8.69721C11.0212 7.97956 12.0502 7.70318 13.0285 7.60426V7.60435Z" fill="#8CC84B"/>
</svg>
