<svg width="24" height="23" viewBox="0 0 24 23" fill="none" xmlns="http://www.w3.org/2000/svg">
<path d="M11.8805 13.5278C13.0004 13.5278 13.9083 12.6199 13.9083 11.5C13.9083 10.3801 13.0004 9.47229 11.8805 9.47229C10.7606 9.47229 9.8528 10.3801 9.8528 11.5C9.8528 12.6199 10.7606 13.5278 11.8805 13.5278Z" fill="#61DAFB"/>
<path d="M11.8805 15.6544C17.8897 15.6544 22.761 13.7944 22.761 11.5C22.761 9.20559 17.8897 7.34561 11.8805 7.34561C5.87138 7.34561 1 9.20559 1 11.5C1 13.7944 5.87138 15.6544 11.8805 15.6544Z" stroke="#61DAFB"/>
<path d="M8.2827 13.5772C11.2873 18.7813 15.3338 22.07 17.3208 20.9228C19.3078 19.7756 18.4829 14.6269 15.4783 9.42281C12.4737 4.21873 8.42725 0.92999 6.44024 2.07719C4.45323 3.22439 5.27813 8.37312 8.2827 13.5772Z" stroke="#61DAFB"/>
<path d="M8.28271 9.42282C5.27814 14.6269 4.45324 19.7756 6.44025 20.9228C8.42726 22.07 12.4737 18.7813 15.4783 13.5772C18.4829 8.37312 19.3078 3.2244 17.3208 2.0772C15.3338 0.929997 11.2873 4.21874 8.28271 9.42282Z" stroke="#61DAFB"/>
</svg>
