<svg width="27" height="16" viewBox="0 0 27 16" fill="none" xmlns="http://www.w3.org/2000/svg">
<path d="M13.5 0C9.89989 0 7.64994 1.77781 6.74983 5.33311C8.1 3.5553 9.67503 2.88887 11.4749 3.33315C12.502 3.58665 13.236 4.32279 14.0486 5.13732C15.3721 6.46417 16.904 7.99983 20.2502 7.99983C23.8499 7.99983 26.1002 6.22202 27 2.66639C25.6502 4.4442 24.0751 5.11097 22.2749 4.66668C21.2482 4.41318 20.5142 3.67704 19.7015 2.86252C18.378 1.53566 16.8459 0 13.5 0ZM6.74983 7.99983C3.15006 7.99983 0.899775 9.77765 0 13.3333C1.34983 11.5555 2.92486 10.8887 4.72509 11.3333C5.75181 11.5871 6.48581 12.323 7.29848 13.1372C8.62197 14.464 10.1541 16 13.5 16C17.1001 16 19.3501 14.2222 20.2502 10.6666C18.9 12.4444 17.325 13.1111 15.5251 12.6665C14.498 12.4134 13.764 11.6769 12.9514 10.8627C11.6279 9.53582 10.096 7.99983 6.74983 7.99983Z" fill="#06B6D4"/>
</svg>
