<svg width="21" height="21" viewBox="0 0 21 21" fill="none" xmlns="http://www.w3.org/2000/svg">
<path d="M0 0H21V21H0V0Z" fill="#017ACB"/>
<path d="M10.0833 7.77659H11.0906V9.51565H8.3672V17.2528L8.29501 17.2725C8.19657 17.2988 6.90048 17.2988 6.62157 17.2692L6.39845 17.2496V9.51565H3.675V7.77659L4.53797 7.76675C5.01047 7.76018 6.22454 7.76018 7.23517 7.76675C8.24579 7.77331 9.52548 7.77659 10.0833 7.77659ZM17.7713 16.4325C17.371 16.8558 16.9411 17.0921 16.2258 17.2857C15.9141 17.371 15.8616 17.3742 15.1594 17.371C14.4572 17.3677 14.4014 17.3677 14.0602 17.2791C13.1775 17.0527 12.4655 16.6097 11.9799 15.983C11.842 15.8058 11.6156 15.4383 11.6156 15.3924C11.6156 15.3792 11.6485 15.3497 11.6911 15.33C11.7338 15.3103 11.8224 15.2546 11.8945 15.2119C11.9667 15.1692 12.098 15.0905 12.1866 15.0446C12.2752 14.9986 12.5311 14.8477 12.7542 14.7132C12.9774 14.5786 13.1808 14.4703 13.2038 14.4703C13.2267 14.4703 13.2694 14.5163 13.3022 14.5721C13.4991 14.9035 13.9585 15.3267 14.2833 15.4711C14.4835 15.5564 14.9264 15.6516 15.1397 15.6516C15.3366 15.6516 15.6975 15.5663 15.8911 15.4777C16.0978 15.3825 16.2028 15.2874 16.3275 15.0971C16.4128 14.9625 16.4227 14.9264 16.4194 14.6705C16.4194 14.4342 16.4063 14.3686 16.3406 14.2603C16.1569 13.9585 15.9075 13.801 14.8969 13.3547C13.8535 12.8921 13.3842 12.6164 13.0036 12.2457C12.7214 11.97 12.6656 11.8946 12.4885 11.55C12.2588 11.1071 12.2292 10.9627 12.226 10.3032C12.2227 9.8405 12.2325 9.68956 12.2817 9.53206C12.3506 9.29581 12.5738 8.83971 12.6755 8.72487C12.8855 8.47878 12.961 8.40331 13.1086 8.2819C13.5549 7.9144 14.2505 7.67159 14.9166 7.64862C14.9921 7.64862 15.2414 7.66175 15.4744 7.67815C16.1438 7.73393 16.5999 7.898 17.0396 8.24909C17.371 8.51159 17.873 9.12846 17.8238 9.2105C17.791 9.25971 16.4817 10.1325 16.3964 10.1588C16.3439 10.1752 16.3078 10.1555 16.2356 10.0702C15.7894 9.53534 15.6089 9.42049 15.1758 9.39424C14.8674 9.37456 14.7033 9.41065 14.4966 9.54846C14.28 9.69284 14.175 9.91268 14.175 10.2178C14.1783 10.6641 14.3489 10.8741 14.9789 11.1858C15.3858 11.386 15.7336 11.55 15.7599 11.55C15.7992 11.55 16.6425 11.97 16.8624 12.1013C17.8861 12.7017 18.3028 13.3186 18.4111 14.3817C18.4899 15.1824 18.2635 15.9141 17.7713 16.4325Z" fill="white"/>
</svg>
